<svg width="1608" height="684" viewBox="0 0 1608 684" fill="none" xmlns="http://www.w3.org/2000/svg">
<path opacity="0.6" d="M492.055 341.115C493.557 338.195 495.346 335.433 497.397 332.869C501.348 327.793 506.268 323.553 511.871 320.395C517.475 317.237 523.65 315.223 530.037 314.471C536.425 313.719 542.899 314.243 549.083 316.014C555.266 317.784 561.036 320.766 566.058 324.785C571.08 328.804 575.253 333.78 578.336 339.426C581.419 345.071 583.349 351.272 584.015 357.67C584.681 364.067 584.069 370.533 582.216 376.692C580.362 382.852 577.304 388.581 573.217 393.548C571.299 395.933 569.164 398.134 566.84 400.125" stroke="#C8C4FB" stroke-miterlimit="10"/>
<path opacity="0.6" d="M549.697 409.557C542.126 411.915 534.094 412.384 526.301 410.924C518.507 409.463 511.19 406.117 504.987 401.177C498.785 396.238 493.886 389.855 490.718 382.586C487.55 375.317 486.21 367.384 486.814 359.478" stroke="#C8C4FB" stroke-miterlimit="10"/>
<path opacity="0.6" d="M578.659 384.835C586.622 394.4 590.344 401.795 587.991 404.749C583.266 410.659 555.94 396.67 526.994 373.5C498.048 350.33 478.4 326.759 483.125 320.817C485.495 317.879 493.474 319.882 504.475 325.491L508.264 322.703C475.496 301.002 449.271 290.251 443.495 297.463C435.633 307.295 468.652 346.774 517.245 385.669C565.839 424.564 611.611 448.118 619.457 438.303C625.25 431.024 608.907 407.821 580.529 380.561" stroke="#C8C4FB" stroke-miterlimit="10"/>
<path opacity="0.6" d="M1518.77 469.515C1567.86 456.26 1596.91 405.72 1583.66 356.63C1570.4 307.54 1519.86 278.489 1470.77 291.744C1421.68 304.999 1392.63 355.539 1405.89 404.629C1419.14 453.719 1469.68 482.77 1518.77 469.515Z" stroke="#C8C4FB" stroke-miterlimit="10"/>
<path opacity="0.6" d="M1492.63 353.573C1471.64 365.293 1450.08 379.071 1428.9 385.712C1420.55 388.331 1411.93 389.948 1403.2 390.531C1404.01 397.912 1405.71 405.169 1408.25 412.148C1415.82 413.296 1423.53 413.235 1431.09 411.965C1453.33 408.267 1480.58 391.546 1505.53 377.899C1530.48 364.251 1560.61 352.766 1581.66 356.308C1582.33 356.308 1583.01 356.516 1583.66 356.646C1582.97 354.076 1582.16 351.524 1581.24 348.989C1579.26 343.562 1576.79 338.331 1573.84 333.362C1568.44 331.938 1562.89 331.203 1557.3 331.174C1537.87 331.148 1513.55 341.54 1492.63 353.573Z" stroke="#C8C4FB" stroke-miterlimit="10"/>
<path opacity="0.6" d="M1440.6 354.068C1456.74 347.661 1476.49 344.119 1494.82 339.899C1513.16 335.68 1532.9 329.481 1544.59 320.756C1548.45 317.901 1551.95 314.586 1555.01 310.885C1552.03 308.322 1548.89 305.948 1545.61 303.775C1533.78 313.542 1512.66 321.434 1492.95 325.887C1471.36 331.096 1446.61 335.758 1431.09 343.676C1424.2 347.269 1417.84 351.81 1412.21 357.167C1409.79 359.277 1407 361.543 1404.21 364.017C1403.3 368.941 1402.8 373.933 1402.73 378.941C1413.8 368.887 1423.3 361.048 1440.6 354.068Z" stroke="#C8C4FB" stroke-miterlimit="10"/>
<path opacity="0.6" d="M1535.61 393.656C1553.18 387.912 1570.2 380.59 1586.45 371.778C1586.12 368.277 1585.58 364.798 1584.83 361.36C1569.3 369.758 1553.07 376.816 1536.34 382.457C1512.4 390.921 1485.21 399.646 1467.16 409.179C1459.18 413.429 1451.59 418.371 1444.48 423.946C1438.67 428.244 1431.64 433.192 1423.64 439.156C1425.23 441.084 1426.87 442.933 1428.59 444.678C1442.88 433.219 1458.49 423.529 1475.11 415.82C1493.65 407.46 1515.29 400.688 1535.61 393.656Z" stroke="#C8C4FB" stroke-miterlimit="10"/>
<path opacity="0.6" d="M1411.71 340.967C1432.73 335.602 1457.45 320.626 1480.08 308.177C1492.03 301.335 1504.64 295.708 1517.72 291.378C1497.05 286.049 1475.17 288.072 1455.83 297.1C1436.5 306.128 1420.9 321.599 1411.71 340.863V340.967Z" stroke="#C8C4FB" stroke-miterlimit="10"/>
<path opacity="0.6" d="M1515.42 415.638C1494.43 427.384 1472.87 441.136 1451.67 447.777C1446.55 449.372 1441.33 450.608 1436.04 451.475C1446.15 459.821 1457.91 465.928 1470.55 469.394C1489.01 462.545 1509.41 450.382 1528.34 439.964C1543.87 430.914 1560.61 424.142 1578.06 419.857C1581.93 411.605 1584.56 402.829 1585.87 393.812C1584.03 393.656 1582.1 393.552 1580.04 393.5C1560.66 393.317 1536.34 403.709 1515.42 415.638Z" stroke="#C8C4FB" stroke-miterlimit="10"/>
<path opacity="0.6" d="M1491.51 472.598C1505.39 473.082 1519.2 470.424 1531.9 464.823C1544.61 459.221 1555.88 450.821 1564.88 440.25C1557.11 440.048 1549.35 441.095 1541.91 443.35C1526.31 448.09 1508.7 460.018 1491.51 472.598Z" stroke="#C8C4FB" stroke-miterlimit="10"/>
<path opacity="0.6" d="M269.618 327.777C284.306 295.096 269.719 256.697 237.038 242.009C204.357 227.322 165.958 241.908 151.27 274.589C136.583 307.27 151.169 345.67 183.85 360.357C216.531 375.045 254.931 360.458 269.618 327.777Z" stroke="#C8C4FB" stroke-miterlimit="10"/>
<path opacity="0.6" d="M223.743 287.371C207.732 281.843 190.371 276.991 177.033 268.92C171.752 265.744 166.857 261.965 162.449 257.658C158.953 261.546 155.938 265.841 153.47 270.451C156.429 274.973 160.081 279.001 164.292 282.388C176.644 292.327 198.26 298.892 217.1 305.562C235.94 312.231 256.025 322.766 264.122 335.482C264.407 335.897 264.666 336.286 264.9 336.676C265.912 335.119 266.872 333.51 267.78 331.823C269.69 328.267 271.263 324.54 272.477 320.69C270.698 317.176 268.474 313.906 265.86 310.959C256.7 300.709 239.832 292.794 223.743 287.371Z" stroke="#C8C4FB" stroke-miterlimit="10"/>
<path opacity="0.6" d="M192.396 238.922C205.059 247.459 224.522 253.454 241.701 259.526C250.909 262.599 259.785 266.59 268.196 271.437C261.292 258.068 249.956 247.515 236.128 241.583C222.3 235.651 206.841 234.711 192.396 238.922V238.922Z" stroke="#C8C4FB" stroke-miterlimit="10"/>
<path opacity="0.6" d="M201.712 328.501C185.7 322.974 168.34 318.121 155.001 310.051C151.746 308.103 148.633 305.926 145.685 303.537C146.024 312.765 148.324 321.815 152.432 330.084C164.681 336.598 180.64 341.606 194.991 346.692C206.981 350.622 218.343 356.259 228.726 363.43C234.924 361.587 240.817 358.842 246.216 355.282C245.438 354.244 244.581 353.18 243.621 352.09C234.668 341.84 217.801 333.925 201.712 328.501Z" stroke="#C8C4FB" stroke-miterlimit="10"/>
<path d="M1353.27 100.157C1345.01 110.483 1332.99 117.107 1319.86 118.572C1306.72 120.038 1293.53 116.224 1283.21 107.97C1272.88 99.7153 1266.26 87.6967 1264.79 74.5579C1263.33 61.4192 1267.14 48.2365 1275.39 37.9095C1283.65 27.5833 1295.67 20.959 1308.81 19.4937C1321.94 18.0284 1335.13 21.8422 1345.45 30.0961C1355.78 38.3509 1362.41 50.3695 1363.87 63.5083C1365.34 76.647 1361.52 89.8297 1353.27 100.157Z" stroke="#C8C4FB" stroke-miterlimit="10"/>
<path d="M249.319 34.641C245.939 38.8681 241.019 41.5799 235.641 42.1797C230.262 42.7795 224.866 41.2183 220.638 37.8395C216.411 34.4603 213.7 29.5403 213.1 24.1618C212.5 18.7834 214.061 13.3869 217.44 9.15939C220.819 4.93224 225.739 2.22051 231.118 1.62068C236.496 1.02085 241.893 2.58204 246.12 5.96086C250.347 9.34008 253.059 14.26 253.659 19.6385C254.259 25.017 252.697 30.4135 249.319 34.641Z" stroke="#C8C4FB" stroke-miterlimit="10"/>
<path d="M596.197 225.276C593.15 229.086 589.041 231.906 584.391 233.381C579.741 234.856 574.758 234.919 570.073 233.561C565.387 232.204 561.209 229.488 558.067 225.756C554.925 222.024 552.961 217.445 552.421 212.596C551.882 207.748 552.793 202.849 555.039 198.518C557.284 194.187 560.763 190.62 565.036 188.266C569.309 185.913 574.184 184.879 579.045 185.297C583.905 185.714 588.532 187.563 592.342 190.61C594.874 192.631 596.983 195.132 598.547 197.969C600.111 200.806 601.101 203.924 601.459 207.144C601.817 210.364 601.537 213.623 600.634 216.734C599.731 219.845 598.223 222.748 596.197 225.276Z" stroke="#C8C4FB" stroke-miterlimit="10"/>
<path opacity="0.6" d="M988.209 324.698C996.839 303.751 986.853 279.774 965.906 271.144C944.959 262.515 920.982 272.5 912.353 293.447C903.723 314.395 913.709 338.371 934.656 347.001C955.603 355.63 979.58 345.645 988.209 324.698Z" stroke="#C8C4FB" stroke-miterlimit="10"/>
<path opacity="0.6" d="M929.649 306.692C935.014 306.692 939.363 302.343 939.363 296.977C939.363 291.612 935.014 287.263 929.649 287.263C924.283 287.263 919.934 291.612 919.934 296.977C919.934 302.343 924.283 306.692 929.649 306.692Z" stroke="#C8C4FB" stroke-miterlimit="10"/>
<path opacity="0.6" d="M948.896 282.106C948.896 282.848 948.676 283.573 948.264 284.19C947.852 284.806 947.266 285.287 946.581 285.571C945.895 285.855 945.141 285.929 944.414 285.784C943.686 285.64 943.018 285.282 942.493 284.758C941.969 284.233 941.612 283.565 941.467 282.838C941.322 282.11 941.396 281.356 941.68 280.671C941.964 279.985 942.445 279.4 943.062 278.988C943.678 278.575 944.404 278.355 945.145 278.355C945.639 278.352 946.128 278.447 946.585 278.634C947.041 278.821 947.456 279.097 947.805 279.446C948.154 279.795 948.43 280.21 948.617 280.667C948.805 281.123 948.899 281.612 948.896 282.106V282.106Z" stroke="#C8C4FB" stroke-miterlimit="10"/>
<path opacity="0.6" d="M978.639 285.856C978.644 286.599 978.429 287.327 978.02 287.947C977.611 288.567 977.027 289.052 976.342 289.34C975.657 289.628 974.902 289.706 974.173 289.564C973.444 289.422 972.773 289.067 972.246 288.544C971.719 288.02 971.359 287.352 971.212 286.624C971.065 285.895 971.138 285.14 971.421 284.453C971.704 283.766 972.185 283.179 972.802 282.766C973.42 282.353 974.146 282.132 974.889 282.132C975.38 282.128 975.867 282.222 976.322 282.408C976.777 282.594 977.19 282.867 977.539 283.214C977.888 283.56 978.164 283.971 978.353 284.425C978.542 284.879 978.639 285.365 978.639 285.856V285.856Z" stroke="#C8C4FB" stroke-miterlimit="10"/>
<path opacity="0.6" d="M935.326 333.362C935.326 334.105 935.106 334.831 934.693 335.448C934.279 336.066 933.692 336.546 933.005 336.83C932.318 337.113 931.563 337.185 930.835 337.038C930.106 336.892 929.438 336.532 928.915 336.005C928.391 335.478 928.036 334.807 927.894 334.078C927.753 333.348 927.831 332.594 928.119 331.909C928.406 331.224 928.891 330.64 929.511 330.231C930.131 329.822 930.859 329.607 931.602 329.612C932.592 329.619 933.539 330.017 934.237 330.719C934.935 331.422 935.326 332.372 935.326 333.362V333.362Z" stroke="#C8C4FB" stroke-miterlimit="10"/>
<path opacity="0.6" d="M967.44 293.279C967.445 294.755 967.012 296.198 966.195 297.427C965.379 298.656 964.216 299.615 962.853 300.182C961.491 300.749 959.991 300.899 958.544 300.612C957.097 300.326 955.767 299.616 954.724 298.572C953.681 297.529 952.971 296.199 952.684 294.752C952.397 293.305 952.547 291.805 953.114 290.443C953.681 289.081 954.64 287.917 955.869 287.101C957.098 286.284 958.542 285.851 960.017 285.856C961.983 285.863 963.867 286.648 965.258 288.038C966.649 289.429 967.433 291.313 967.44 293.279Z" stroke="#C8C4FB" stroke-miterlimit="10"/>
<path opacity="0.6" d="M987.859 325.549C985.27 323.459 982.044 322.32 978.717 322.319C976.779 322.319 974.86 322.701 973.07 323.444C971.28 324.186 969.653 325.274 968.284 326.646C966.915 328.018 965.83 329.646 965.09 331.437C964.351 333.229 963.972 335.149 963.976 337.087C963.964 340.468 965.134 343.748 967.283 346.359C976.46 342.177 983.782 334.772 987.859 325.549V325.549Z" stroke="#C8C4FB" stroke-miterlimit="10"/>
<path opacity="0.6" d="M1109.59 657.676C1114.87 644.849 1108.76 630.167 1095.93 624.883C1083.1 619.599 1068.42 625.713 1063.14 638.54C1057.85 651.367 1063.97 666.049 1076.8 671.333C1089.62 676.617 1104.3 670.503 1109.59 657.676Z" stroke="#C8C4FB" stroke-miterlimit="10"/>
<path opacity="0.6" d="M1073.73 646.65C1077.01 646.65 1079.68 643.987 1079.68 640.702C1079.68 637.416 1077.01 634.753 1073.73 634.753C1070.44 634.753 1067.78 637.416 1067.78 640.702C1067.78 643.987 1070.44 646.65 1073.73 646.65Z" stroke="#C8C4FB" stroke-miterlimit="10"/>
<path opacity="0.6" d="M1085.51 631.595C1085.51 632.049 1085.38 632.493 1085.13 632.871C1084.88 633.249 1084.52 633.543 1084.1 633.717C1083.68 633.891 1083.22 633.936 1082.77 633.848C1082.32 633.759 1081.92 633.54 1081.59 633.219C1081.27 632.898 1081.05 632.489 1080.97 632.043C1080.88 631.598 1080.92 631.136 1081.1 630.716C1081.27 630.297 1081.56 629.938 1081.94 629.686C1082.32 629.433 1082.76 629.299 1083.22 629.299C1083.52 629.296 1083.82 629.354 1084.1 629.469C1084.38 629.584 1084.63 629.753 1084.85 629.967C1085.06 630.18 1085.23 630.434 1085.34 630.714C1085.46 630.993 1085.52 631.293 1085.51 631.595V631.595Z" stroke="#C8C4FB" stroke-miterlimit="10"/>
<path opacity="0.6" d="M1103.73 633.892C1103.73 634.347 1103.6 634.792 1103.35 635.172C1103.1 635.552 1102.74 635.849 1102.32 636.025C1101.9 636.201 1101.44 636.249 1100.99 636.162C1100.55 636.075 1100.14 635.858 1099.81 635.537C1099.49 635.217 1099.27 634.808 1099.18 634.362C1099.09 633.916 1099.13 633.453 1099.31 633.033C1099.48 632.612 1099.78 632.252 1100.15 631.999C1100.53 631.746 1100.98 631.611 1101.43 631.611C1101.73 631.609 1102.03 631.666 1102.31 631.78C1102.59 631.894 1102.84 632.061 1103.05 632.273C1103.27 632.485 1103.44 632.738 1103.55 633.015C1103.67 633.293 1103.73 633.591 1103.73 633.892V633.892Z" stroke="#C8C4FB" stroke-miterlimit="10"/>
<path opacity="0.6" d="M1077.21 662.982C1077.21 663.437 1077.07 663.881 1076.82 664.259C1076.56 664.637 1076.2 664.932 1075.78 665.105C1075.36 665.278 1074.9 665.323 1074.46 665.233C1074.01 665.143 1073.6 664.923 1073.28 664.6C1072.96 664.277 1072.74 663.866 1072.65 663.42C1072.57 662.973 1072.62 662.511 1072.79 662.092C1072.97 661.672 1073.27 661.315 1073.64 661.064C1074.02 660.814 1074.47 660.682 1074.93 660.685C1075.53 660.689 1076.11 660.933 1076.54 661.363C1076.97 661.794 1077.21 662.375 1077.21 662.982V662.982Z" stroke="#C8C4FB" stroke-miterlimit="10"/>
<path opacity="0.6" d="M1096.87 638.437C1096.87 639.341 1096.61 640.225 1096.11 640.977C1095.61 641.73 1094.9 642.317 1094.06 642.664C1093.23 643.011 1092.31 643.103 1091.42 642.927C1090.54 642.752 1089.72 642.317 1089.08 641.678C1088.44 641.039 1088.01 640.225 1087.83 639.339C1087.66 638.453 1087.75 637.534 1088.1 636.7C1088.45 635.866 1089.03 635.154 1089.78 634.654C1090.54 634.154 1091.42 633.889 1092.32 633.892C1093.53 633.896 1094.68 634.376 1095.53 635.228C1096.39 636.079 1096.87 637.233 1096.87 638.437Z" stroke="#C8C4FB" stroke-miterlimit="10"/>
<path opacity="0.6" d="M1109.37 658.197C1107.79 656.918 1105.81 656.22 1103.78 656.22C1102.59 656.22 1101.41 656.454 1100.32 656.908C1099.22 657.363 1098.23 658.029 1097.39 658.869C1096.55 659.709 1095.88 660.706 1095.43 661.803C1094.98 662.9 1094.75 664.076 1094.75 665.262C1094.74 667.333 1095.46 669.341 1096.77 670.94C1102.39 668.38 1106.88 663.845 1109.37 658.197V658.197Z" stroke="#C8C4FB" stroke-miterlimit="10"/>
<path d="M1079.77 129.952L1077.56 127.764L1079.77 125.55C1079.89 125.42 1079.96 125.248 1079.96 125.068C1079.96 124.889 1079.89 124.717 1079.77 124.587C1079.71 124.524 1079.64 124.474 1079.56 124.439C1079.48 124.405 1079.39 124.387 1079.3 124.387C1079.21 124.387 1079.13 124.405 1079.05 124.439C1078.97 124.474 1078.89 124.524 1078.83 124.587L1076.62 126.8L1074.41 124.587C1074.28 124.459 1074.1 124.387 1073.92 124.387C1073.74 124.387 1073.57 124.459 1073.44 124.587C1073.31 124.714 1073.24 124.888 1073.24 125.068C1073.24 125.249 1073.31 125.423 1073.44 125.55L1075.66 127.764L1073.44 129.952C1073.38 130.015 1073.33 130.09 1073.29 130.173C1073.26 130.256 1073.24 130.344 1073.24 130.434C1073.24 130.523 1073.26 130.612 1073.29 130.694C1073.33 130.777 1073.38 130.852 1073.44 130.916C1073.51 130.979 1073.58 131.029 1073.66 131.063C1073.75 131.098 1073.83 131.115 1073.92 131.115C1074.01 131.115 1074.1 131.098 1074.18 131.063C1074.27 131.029 1074.34 130.979 1074.41 130.916L1076.62 128.702L1078.83 130.916C1078.89 130.979 1078.97 131.029 1079.05 131.063C1079.13 131.097 1079.21 131.115 1079.3 131.115C1079.39 131.115 1079.48 131.097 1079.56 131.063C1079.64 131.029 1079.71 130.979 1079.77 130.916C1079.89 130.785 1079.96 130.613 1079.96 130.434C1079.96 130.255 1079.89 130.082 1079.77 129.952Z" fill="#C8C4FB"/>
<path d="M1035.49 682.212L1033.28 679.998L1035.49 677.784C1035.62 677.66 1035.69 677.491 1035.69 677.315C1035.69 677.139 1035.62 676.971 1035.49 676.846C1035.37 676.722 1035.2 676.652 1035.03 676.652C1034.85 676.652 1034.68 676.722 1034.56 676.846L1032.34 679.06L1030.13 676.846C1030.01 676.722 1029.84 676.652 1029.66 676.652C1029.49 676.652 1029.32 676.722 1029.19 676.846C1029.07 676.971 1029 677.139 1029 677.315C1029 677.491 1029.07 677.66 1029.19 677.784L1031.38 679.998L1029.19 682.212C1029.07 682.342 1029 682.514 1029 682.693C1029 682.873 1029.07 683.045 1029.19 683.175C1029.25 683.238 1029.33 683.288 1029.41 683.323C1029.49 683.357 1029.57 683.375 1029.66 683.375C1029.75 683.375 1029.84 683.357 1029.92 683.323C1030 683.288 1030.07 683.238 1030.13 683.175L1032.34 680.961L1034.56 683.175C1034.62 683.238 1034.69 683.288 1034.77 683.323C1034.85 683.357 1034.94 683.375 1035.03 683.375C1035.11 683.375 1035.2 683.357 1035.28 683.323C1035.36 683.288 1035.43 683.238 1035.49 683.175C1035.62 683.045 1035.69 682.873 1035.69 682.693C1035.69 682.514 1035.62 682.342 1035.49 682.212Z" fill="#C8C4FB"/>
<path d="M9.82283 144.693L7.60902 142.61L9.82283 140.396C9.8844 140.334 9.93323 140.261 9.96655 140.181C9.99987 140.1 10.017 140.014 10.017 139.927C10.017 139.84 9.99987 139.754 9.96655 139.673C9.93323 139.593 9.8844 139.52 9.82283 139.458C9.76127 139.397 9.68818 139.348 9.60774 139.315C9.52731 139.281 9.44109 139.264 9.35403 139.264C9.26696 139.264 9.18075 139.281 9.10031 139.315C9.01987 139.348 8.94678 139.397 8.88522 139.458L6.67141 141.646L4.4576 139.458C4.32717 139.336 4.15484 139.267 3.97577 139.267C3.7967 139.267 3.62437 139.336 3.49394 139.458C3.43092 139.519 3.3808 139.592 3.34656 139.672C3.31232 139.753 3.29468 139.84 3.29468 139.927C3.29468 140.015 3.31232 140.101 3.34656 140.182C3.3808 140.262 3.43092 140.335 3.49394 140.396L5.70775 142.61L3.49394 144.824C3.43092 144.884 3.3808 144.957 3.34656 145.038C3.31232 145.118 3.29468 145.205 3.29468 145.292C3.29468 145.38 3.31232 145.467 3.34656 145.547C3.3808 145.628 3.43092 145.7 3.49394 145.761C3.62437 145.884 3.7967 145.952 3.97577 145.952C4.15484 145.952 4.32717 145.884 4.4576 145.761L6.67141 143.547L8.88522 145.761C8.94678 145.823 9.01987 145.872 9.10031 145.905C9.18075 145.938 9.26696 145.955 9.35403 145.955C9.44109 145.955 9.52731 145.938 9.60774 145.905C9.68818 145.872 9.76127 145.823 9.82283 145.761C9.8844 145.7 9.93323 145.627 9.96655 145.546C9.99987 145.466 10.017 145.379 10.017 145.292C10.017 145.205 9.99987 145.119 9.96655 145.039C9.93323 144.958 9.8844 144.885 9.82283 144.824V144.693Z" fill="#FFAAE7"/>
<path d="M241.008 569.452L238.795 567.238L241.008 565.025C241.071 564.964 241.121 564.891 241.156 564.81C241.19 564.73 241.208 564.643 241.208 564.556C241.208 564.468 241.19 564.382 241.156 564.301C241.121 564.221 241.071 564.148 241.008 564.087C240.878 563.964 240.706 563.896 240.526 563.896C240.347 563.896 240.175 563.964 240.045 564.087L237.831 566.301L235.617 564.087C235.493 563.963 235.324 563.893 235.148 563.893C234.972 563.893 234.804 563.963 234.679 564.087C234.555 564.211 234.485 564.38 234.485 564.556C234.485 564.732 234.555 564.9 234.679 565.025L236.893 567.238L234.679 569.452C234.555 569.577 234.485 569.745 234.485 569.921C234.485 570.097 234.555 570.265 234.679 570.39C234.804 570.514 234.972 570.584 235.148 570.584C235.324 570.584 235.493 570.514 235.617 570.39L237.831 568.176L240.045 570.39C240.175 570.512 240.347 570.581 240.526 570.581C240.706 570.581 240.878 570.512 241.008 570.39C241.071 570.329 241.121 570.256 241.156 570.176C241.19 570.095 241.208 570.009 241.208 569.921C241.208 569.833 241.19 569.747 241.156 569.666C241.121 569.586 241.071 569.513 241.008 569.452Z" fill="#C8C4FB"/>
<path d="M675.217 248.899L673.029 246.685L675.217 244.471C675.339 244.341 675.408 244.168 675.408 243.989C675.408 243.81 675.339 243.638 675.217 243.507C675.156 243.444 675.083 243.394 675.002 243.36C674.922 243.326 674.835 243.308 674.748 243.308C674.66 243.308 674.574 243.326 674.493 243.36C674.412 243.394 674.34 243.444 674.279 243.507L672.065 245.721L669.851 243.507C669.791 243.444 669.718 243.394 669.637 243.36C669.557 243.326 669.47 243.308 669.383 243.308C669.295 243.308 669.208 243.326 669.128 243.36C669.047 243.394 668.974 243.444 668.914 243.507C668.791 243.638 668.723 243.81 668.723 243.989C668.723 244.168 668.791 244.341 668.914 244.471L671.127 246.685L668.914 248.899C668.852 248.96 668.803 249.033 668.77 249.114C668.737 249.194 668.719 249.28 668.719 249.368C668.719 249.455 668.737 249.541 668.77 249.621C668.803 249.702 668.852 249.775 668.914 249.836C668.975 249.898 669.048 249.947 669.129 249.98C669.209 250.013 669.295 250.031 669.383 250.031C669.47 250.031 669.556 250.013 669.636 249.98C669.717 249.947 669.79 249.898 669.851 249.836L672.065 247.623L674.279 249.836C674.34 249.898 674.414 249.947 674.494 249.98C674.574 250.013 674.661 250.031 674.748 250.031C674.835 250.031 674.921 250.013 675.001 249.98C675.082 249.947 675.155 249.898 675.217 249.836C675.278 249.775 675.327 249.702 675.36 249.621C675.394 249.541 675.411 249.455 675.411 249.368C675.411 249.28 675.394 249.194 675.36 249.114C675.327 249.033 675.278 248.96 675.217 248.899Z" fill="#C8C4FB"/>
<path d="M148.837 28.8945L146.649 26.6807L148.837 24.4669C148.96 24.3364 149.028 24.1641 149.028 23.985C149.028 23.806 148.96 23.6336 148.837 23.5032C148.776 23.4402 148.703 23.3901 148.623 23.3558C148.542 23.3216 148.456 23.304 148.368 23.304C148.281 23.304 148.194 23.3216 148.113 23.3558C148.033 23.3901 147.96 23.4402 147.899 23.5032L145.685 25.717L143.472 23.5032C143.411 23.4402 143.338 23.3901 143.257 23.3558C143.177 23.3216 143.09 23.304 143.003 23.304C142.915 23.304 142.829 23.3216 142.748 23.3558C142.668 23.3901 142.595 23.4402 142.534 23.5032C142.411 23.6336 142.343 23.806 142.343 23.985C142.343 24.1641 142.411 24.3364 142.534 24.4669L144.748 26.6807L142.534 28.8945C142.472 28.9561 142.424 29.0292 142.39 29.1096C142.357 29.19 142.34 29.2762 142.34 29.3633C142.34 29.4504 142.357 29.5366 142.39 29.617C142.424 29.6975 142.472 29.7705 142.534 29.8321C142.596 29.8937 142.669 29.9425 142.749 29.9758C142.83 30.0091 142.916 30.0263 143.003 30.0263C143.09 30.0263 143.176 30.0091 143.257 29.9758C143.337 29.9425 143.41 29.8937 143.472 29.8321L145.685 27.6183L147.899 29.8321C147.961 29.8937 148.034 29.9425 148.114 29.9758C148.195 30.0091 148.281 30.0263 148.368 30.0263C148.455 30.0263 148.541 30.0091 148.622 29.9758C148.702 29.9425 148.775 29.8937 148.837 29.8321C148.898 29.7705 148.947 29.6975 148.981 29.617C149.014 29.5366 149.031 29.4504 149.031 29.3633C149.031 29.2762 149.014 29.19 148.981 29.1096C148.947 29.0292 148.898 28.9561 148.837 28.8945Z" fill="#C8C4FB"/>
<path d="M1314.15 679.394L1311.96 677.206L1314.15 674.992C1314.22 674.931 1314.27 674.857 1314.31 674.774C1314.34 674.691 1314.36 674.601 1314.36 674.511C1314.36 674.42 1314.34 674.33 1314.31 674.247C1314.27 674.164 1314.22 674.09 1314.15 674.029C1314.09 673.966 1314.02 673.916 1313.93 673.881C1313.85 673.847 1313.77 673.83 1313.68 673.83C1313.59 673.83 1313.51 673.847 1313.43 673.881C1313.34 673.916 1313.27 673.966 1313.21 674.029L1311 676.243L1308.78 674.029C1308.72 673.966 1308.65 673.916 1308.57 673.881C1308.49 673.847 1308.4 673.83 1308.31 673.83C1308.23 673.83 1308.14 673.847 1308.06 673.881C1307.98 673.916 1307.91 673.966 1307.85 674.029C1307.72 674.159 1307.65 674.332 1307.65 674.511C1307.65 674.69 1307.72 674.862 1307.85 674.992L1310.06 677.206L1307.85 679.394C1307.72 679.525 1307.65 679.697 1307.65 679.876C1307.65 680.055 1307.72 680.227 1307.85 680.358C1307.91 680.421 1307.98 680.471 1308.06 680.505C1308.14 680.539 1308.23 680.557 1308.31 680.557C1308.4 680.557 1308.49 680.539 1308.57 680.505C1308.65 680.471 1308.72 680.421 1308.78 680.358L1311 678.144L1313.21 680.358C1313.27 680.421 1313.34 680.471 1313.43 680.505C1313.51 680.539 1313.59 680.557 1313.68 680.557C1313.77 680.557 1313.85 680.539 1313.93 680.505C1314.02 680.471 1314.09 680.421 1314.15 680.358C1314.22 680.297 1314.27 680.222 1314.31 680.139C1314.34 680.056 1314.36 679.967 1314.36 679.876C1314.36 679.785 1314.34 679.695 1314.31 679.612C1314.27 679.529 1314.22 679.455 1314.15 679.394Z" fill="#C8C4FB"/>
<path opacity="0.6" d="M1295.32 312.214C1295.32 312.394 1295.28 312.572 1295.21 312.738C1295.14 312.904 1295.04 313.055 1294.91 313.181C1294.78 313.307 1294.63 313.406 1294.46 313.473C1294.3 313.539 1294.12 313.572 1293.94 313.568C1293.58 313.568 1293.23 313.425 1292.98 313.171C1292.73 312.917 1292.58 312.573 1292.58 312.214C1292.58 312.034 1292.61 311.855 1292.68 311.688C1292.75 311.52 1292.84 311.368 1292.97 311.239C1293.1 311.111 1293.25 311.009 1293.41 310.939C1293.58 310.869 1293.76 310.833 1293.94 310.833C1294.12 310.833 1294.3 310.869 1294.47 310.939C1294.63 311.008 1294.79 311.11 1294.91 311.238C1295.04 311.366 1295.14 311.518 1295.21 311.686C1295.28 311.853 1295.32 312.033 1295.32 312.214Z" fill="#C8C4FB"/>
<path opacity="0.6" d="M1378.9 140.552C1378.9 140.939 1378.78 141.316 1378.57 141.637C1378.35 141.959 1378.05 142.209 1377.69 142.357C1377.33 142.505 1376.94 142.543 1376.56 142.468C1376.18 142.393 1375.83 142.207 1375.56 141.933C1375.29 141.66 1375.1 141.312 1375.03 140.933C1374.95 140.554 1374.99 140.162 1375.14 139.805C1375.29 139.448 1375.54 139.143 1375.86 138.928C1376.18 138.713 1376.56 138.599 1376.94 138.599C1377.46 138.599 1377.96 138.805 1378.32 139.171C1378.69 139.537 1378.9 140.034 1378.9 140.552Z" fill="#C8C4FB"/>
<path opacity="0.6" d="M643.39 623.814C643.39 624.577 643.164 625.322 642.74 625.956C642.317 626.59 641.715 627.084 641.01 627.376C640.306 627.667 639.531 627.744 638.783 627.595C638.035 627.446 637.349 627.079 636.809 626.54C636.27 626.001 635.903 625.314 635.755 624.566C635.606 623.819 635.682 623.044 635.974 622.339C636.266 621.635 636.76 621.033 637.394 620.609C638.027 620.186 638.773 619.96 639.535 619.96C640.041 619.96 640.543 620.059 641.01 620.253C641.478 620.447 641.903 620.731 642.261 621.089C642.619 621.447 642.903 621.872 643.096 622.339C643.29 622.807 643.39 623.308 643.39 623.814Z" fill="#C8C4FB"/>
<path opacity="0.6" d="M738.532 414.935C738.526 416.206 738.145 417.447 737.435 418.502C736.725 419.556 735.718 420.377 734.542 420.859C733.366 421.342 732.074 421.466 730.828 421.215C729.581 420.964 728.438 420.349 727.54 419.448C726.643 418.548 726.033 417.401 725.787 416.154C725.541 414.907 725.67 413.615 726.158 412.441C726.645 411.267 727.47 410.264 728.527 409.558C729.585 408.852 730.827 408.476 732.098 408.476C733.807 408.482 735.443 409.166 736.649 410.377C737.855 411.587 738.532 413.226 738.532 414.935Z" fill="#C8C4FB"/>
<path opacity="0.6" d="M1061.33 431.395C1061.33 432.164 1061.1 432.915 1060.68 433.554C1060.25 434.192 1059.64 434.69 1058.93 434.983C1058.22 435.276 1057.44 435.351 1056.68 435.199C1055.93 435.047 1055.24 434.675 1054.7 434.13C1054.16 433.584 1053.79 432.89 1053.64 432.136C1053.49 431.381 1053.58 430.6 1053.87 429.892C1054.17 429.183 1054.67 428.579 1055.31 428.156C1055.96 427.732 1056.71 427.509 1057.48 427.514C1057.99 427.514 1058.49 427.615 1058.96 427.81C1059.43 428.005 1059.85 428.292 1060.21 428.652C1060.57 429.013 1060.85 429.441 1061.05 429.912C1061.24 430.383 1061.33 430.887 1061.33 431.395Z" fill="#FFAAE7"/>
<path opacity="0.6" d="M770.228 347.244C770.228 348.012 770.001 348.762 769.574 349.4C769.148 350.038 768.542 350.536 767.833 350.829C767.124 351.123 766.343 351.2 765.59 351.05C764.838 350.9 764.146 350.531 763.603 349.988C763.061 349.445 762.691 348.754 762.541 348.001C762.392 347.248 762.468 346.468 762.762 345.759C763.056 345.05 763.553 344.444 764.192 344.017C764.83 343.591 765.58 343.363 766.347 343.363C767.377 343.363 768.364 343.772 769.092 344.5C769.819 345.228 770.228 346.215 770.228 347.244Z" fill="#C8C4FB"/>
<path opacity="0.6" d="M1485.81 600.739C1485.81 601.506 1485.58 602.256 1485.16 602.895C1484.73 603.533 1484.12 604.03 1483.41 604.324C1482.71 604.618 1481.93 604.695 1481.17 604.545C1480.42 604.395 1479.73 604.025 1479.19 603.483C1478.64 602.94 1478.27 602.249 1478.12 601.496C1477.97 600.743 1478.05 599.963 1478.34 599.254C1478.64 598.544 1479.14 597.938 1479.77 597.512C1480.41 597.086 1481.16 596.858 1481.93 596.858C1482.96 596.858 1483.95 597.267 1484.67 597.995C1485.4 598.722 1485.81 599.709 1485.81 600.739Z" fill="#C8C4FB"/>
<path opacity="0.6" d="M1411.48 552.998C1411.48 554.271 1411.1 555.514 1410.39 556.572C1409.69 557.63 1408.68 558.455 1407.51 558.942C1406.33 559.429 1405.04 559.556 1403.79 559.308C1402.54 559.06 1401.4 558.447 1400.5 557.547C1399.6 556.647 1398.98 555.501 1398.74 554.253C1398.49 553.005 1398.61 551.712 1399.1 550.536C1399.59 549.361 1400.41 548.356 1401.47 547.649C1402.53 546.942 1403.77 546.565 1405.05 546.565C1405.89 546.565 1406.73 546.732 1407.51 547.055C1408.29 547.378 1409 547.852 1409.59 548.449C1410.19 549.047 1410.67 549.756 1410.99 550.536C1411.31 551.317 1411.48 552.153 1411.48 552.998Z" fill="#C8C4FB"/>
<path opacity="0.6" d="M576.715 679.941C576.72 680.711 576.496 681.464 576.072 682.107C575.647 682.749 575.042 683.25 574.331 683.547C573.621 683.844 572.839 683.923 572.084 683.774C571.328 683.625 570.635 683.255 570.09 682.711C569.546 682.167 569.176 681.473 569.027 680.718C568.878 679.962 568.957 679.18 569.254 678.47C569.551 677.76 570.052 677.154 570.695 676.729C571.337 676.305 572.091 676.081 572.86 676.086C573.883 676.086 574.863 676.492 575.586 677.215C576.309 677.938 576.715 678.919 576.715 679.941Z" fill="#C8C4FB"/>
<path opacity="0.6" d="M1330.71 239.549C1330.71 239.868 1330.62 240.18 1330.44 240.446C1330.26 240.711 1330.01 240.918 1329.72 241.041C1329.42 241.163 1329.1 241.195 1328.78 241.132C1328.47 241.07 1328.18 240.916 1327.96 240.691C1327.73 240.465 1327.58 240.177 1327.51 239.864C1327.45 239.551 1327.48 239.226 1327.61 238.931C1327.73 238.636 1327.94 238.384 1328.2 238.206C1328.47 238.029 1328.78 237.934 1329.1 237.934C1329.52 237.941 1329.93 238.113 1330.23 238.414C1330.53 238.716 1330.71 239.123 1330.71 239.549Z" fill="#C8C4FB"/>
<path opacity="0.6" d="M1457.92 112.919C1457.92 114.197 1457.54 115.447 1456.83 116.51C1456.12 117.573 1455.1 118.4 1453.92 118.889C1452.74 119.377 1451.44 119.503 1450.19 119.252C1448.93 119 1447.78 118.383 1446.88 117.477C1445.98 116.571 1445.37 115.417 1445.12 114.163C1444.87 112.908 1445 111.609 1445.5 110.429C1445.99 109.249 1446.82 108.242 1447.89 107.535C1448.95 106.829 1450.2 106.454 1451.48 106.46C1453.19 106.466 1454.83 107.15 1456.03 108.361C1457.24 109.571 1457.92 111.21 1457.92 112.919Z" fill="#FFAAE7"/>
<path opacity="0.6" d="M1484.25 180.635C1484.25 181.094 1484.11 181.542 1483.86 181.923C1483.6 182.304 1483.24 182.601 1482.82 182.777C1482.39 182.952 1481.93 182.998 1481.48 182.909C1481.03 182.819 1480.61 182.598 1480.29 182.274C1479.97 181.95 1479.75 181.537 1479.66 181.087C1479.57 180.638 1479.61 180.172 1479.79 179.748C1479.96 179.325 1480.26 178.963 1480.64 178.708C1481.02 178.453 1481.47 178.317 1481.93 178.317C1482.54 178.317 1483.13 178.561 1483.57 178.996C1484 179.431 1484.25 180.02 1484.25 180.635Z" fill="#C8C4FB"/>
<path opacity="0.6" d="M417.477 260.489C417.995 260.489 418.492 260.694 418.858 261.061C419.224 261.427 419.43 261.924 419.43 262.442C419.43 262.96 419.224 263.457 418.858 263.823C418.492 264.19 417.995 264.395 417.477 264.395C416.959 264.395 416.462 264.19 416.096 263.823C415.729 263.457 415.523 262.96 415.523 262.442C415.523 261.924 415.729 261.427 416.096 261.061C416.462 260.694 416.959 260.489 417.477 260.489Z" fill="#C8C4FB"/>
<path opacity="0.6" d="M516.499 308.672C516.825 308.672 517.143 308.769 517.414 308.95C517.684 309.132 517.894 309.389 518.018 309.691C518.141 309.992 518.172 310.323 518.106 310.642C518.041 310.961 517.882 311.254 517.65 311.482C517.418 311.71 517.123 311.865 516.803 311.925C516.483 311.985 516.152 311.949 515.853 311.821C515.554 311.693 515.299 311.478 515.122 311.205C514.945 310.932 514.853 310.612 514.858 310.286C514.858 310.072 514.901 309.86 514.984 309.662C515.067 309.465 515.188 309.286 515.341 309.135C515.493 308.985 515.674 308.867 515.873 308.787C516.072 308.707 516.285 308.668 516.499 308.672Z" fill="#C8C4FB"/>
<path opacity="0.6" d="M289.779 148.965C291.051 148.965 292.295 149.342 293.353 150.049C294.411 150.756 295.235 151.76 295.722 152.936C296.209 154.111 296.337 155.405 296.088 156.653C295.84 157.901 295.227 159.047 294.328 159.947C293.428 160.846 292.282 161.459 291.034 161.707C289.786 161.955 288.493 161.828 287.317 161.341C286.142 160.854 285.137 160.03 284.43 158.972C283.723 157.914 283.346 156.67 283.346 155.398C283.353 153.694 284.033 152.061 285.238 150.856C286.443 149.651 288.075 148.972 289.779 148.965Z" fill="#FFAAE7"/>
<path opacity="0.6" d="M357.495 122.607C357.954 122.607 358.402 122.743 358.783 122.998C359.164 123.253 359.462 123.615 359.637 124.038C359.812 124.462 359.858 124.928 359.769 125.378C359.679 125.827 359.459 126.24 359.135 126.564C358.81 126.889 358.397 127.109 357.948 127.199C357.498 127.288 357.032 127.242 356.608 127.067C356.185 126.891 355.823 126.594 355.568 126.213C355.313 125.832 355.177 125.384 355.177 124.925C355.177 124.311 355.422 123.721 355.856 123.286C356.291 122.852 356.881 122.607 357.495 122.607Z" fill="#C8C4FB"/>
<path opacity="0.6" d="M1459.19 654.052C1459.19 654.814 1458.96 655.556 1458.53 656.187C1458.1 656.817 1457.5 657.307 1456.79 657.595C1456.09 657.883 1455.32 657.955 1454.57 657.804C1453.82 657.652 1453.14 657.283 1452.6 656.743C1452.07 656.203 1451.7 655.516 1451.56 654.769C1451.41 654.022 1451.49 653.248 1451.78 652.545C1452.07 651.842 1452.57 651.242 1453.2 650.82C1453.83 650.397 1454.58 650.172 1455.34 650.172C1455.85 650.172 1456.35 650.272 1456.82 650.468C1457.29 650.663 1457.71 650.949 1458.07 651.31C1458.43 651.671 1458.71 652.099 1458.91 652.569C1459.1 653.04 1459.2 653.544 1459.19 654.052Z" fill="#C8C4FB"/>
<path opacity="0.6" d="M0.342529 653.766C0.342529 653.004 0.5686 652.258 0.992153 651.624C1.41571 650.991 2.01772 650.496 2.72206 650.205C3.4264 649.913 4.20144 649.837 4.94917 649.985C5.6969 650.134 6.38373 650.501 6.92281 651.04C7.46189 651.579 7.82901 652.266 7.97774 653.014C8.12647 653.762 8.05013 654.537 7.75839 655.241C7.46664 655.945 6.97258 656.547 6.33869 656.971C5.7048 657.395 4.95954 657.621 4.19717 657.621C3.17485 657.621 2.19441 657.214 1.47152 656.492C0.74864 655.769 0.342529 654.788 0.342529 653.766Z" fill="#C8C4FB"/>
<path opacity="0.6" d="M194.674 541.506C194.674 540.234 195.052 538.99 195.759 537.932C196.466 536.874 197.47 536.05 198.646 535.563C199.821 535.076 201.115 534.948 202.363 535.197C203.61 535.445 204.757 536.058 205.656 536.957C206.556 537.857 207.169 539.003 207.417 540.251C207.665 541.499 207.538 542.792 207.051 543.968C206.564 545.143 205.74 546.148 204.682 546.855C203.624 547.562 202.38 547.939 201.108 547.939C200.262 547.943 199.424 547.779 198.642 547.456C197.86 547.134 197.149 546.661 196.551 546.063C195.953 545.465 195.479 544.754 195.157 543.972C194.835 543.19 194.671 542.352 194.674 541.506Z" fill="#FFAAE7"/>
<path opacity="0.6" d="M26.9603 600.452C26.9603 599.69 27.1864 598.944 27.61 598.311C28.0335 597.677 28.6355 597.183 29.3399 596.891C30.0442 596.599 30.8192 596.523 31.567 596.671C32.3147 596.82 33.0015 597.187 33.5406 597.726C34.0797 598.265 34.4468 598.952 34.5955 599.7C34.7443 600.448 34.6679 601.223 34.3762 601.927C34.0844 602.631 33.5904 603.233 32.9565 603.657C32.3226 604.081 31.5773 604.307 30.815 604.307C29.7926 604.307 28.8122 603.901 28.0893 603.178C27.3664 602.455 26.9603 601.474 26.9603 600.452Z" fill="#C8C4FB"/>
<path opacity="0.6" d="M24.5903 239.653C24.5903 240.012 24.4476 240.356 24.1936 240.61C23.9396 240.864 23.5952 241.007 23.236 241.007C23.0559 241.011 22.877 240.978 22.7097 240.912C22.5424 240.845 22.39 240.746 22.2614 240.62C22.1329 240.494 22.0308 240.343 21.9611 240.177C21.8914 240.011 21.8556 239.833 21.8556 239.653C21.8556 239.287 22.001 238.936 22.2599 238.677C22.5188 238.418 22.8699 238.272 23.236 238.272C23.416 238.272 23.5943 238.308 23.7603 238.378C23.9264 238.448 24.0768 238.55 24.2029 238.678C24.3291 238.807 24.4283 238.959 24.4948 239.126C24.5613 239.294 24.5938 239.473 24.5903 239.653Z" fill="#C8C4FB"/>
<path opacity="0.6" d="M59.9852 166.988C59.9903 167.313 59.8985 167.633 59.7214 167.906C59.5443 168.179 59.2899 168.394 58.9905 168.522C58.6912 168.65 58.3605 168.686 58.0405 168.626C57.7205 168.566 57.4257 168.412 57.1936 168.183C56.9616 167.955 56.8027 167.662 56.7372 167.343C56.6718 167.025 56.7027 166.693 56.8261 166.392C56.9495 166.091 57.1597 165.833 57.4301 165.651C57.7005 165.47 58.0187 165.373 58.3444 165.373C58.7751 165.373 59.1885 165.542 59.4955 165.844C59.8025 166.146 59.9783 166.557 59.9852 166.988Z" fill="#C8C4FB"/>
</svg>
